{"title":"Justice League 2017 1080p NEW PROPER Audio HC WEBRip x264 - EiE","magnet":"magnet:?xt=urn:btih:9f7e8e1fa3c9df8fa2f605ff8493682203d80390&dn=Justice+League+2017+1080p+NEW+PROPER+Audio+HC+WEBRip+x264+-+EiE&tr=udp%3A%2F%2Ftracker.leechers-paradise.org%3A6969&tr=udp%3A%2F%2Fzer0day.ch%3A1337&tr=udp%3A%2F%2Fopen.demonii.com%3A1337&tr=udp%3A%2F%2Ftracker.coppersurfer.tk%3A6969&tr=udp%3A%2F%2Fexodus.desync.com%3A6969","uploader":"samcode4u","categoryP":"video","categoryS":"hd___movies","size":"1791973430","seeders":"290","leechers":"97","description":"Justice League 2017 1080p NEW PROPER Audio HC WEBRip AAC x264 - EiE\r\n <a href=\"\nhttps://www.imdb.com/title/tt0974015/\" rel=\"nofollow\" target=\"_NEW\">\nhttps://www.imdb.com/title/tt0974015/</a>\r\n\r\n\r\n\r\nScreenshots:\r\n  <a href=\"\nhttps://lensdump.com/i/pxYpA\" rel=\"nofollow\" target=\"_NEW\">\nhttps://lensdump.com/i/pxYpA</a> \r\n <a href=\"\nhttps://lensdump.com/i/pxM1q\" rel=\"nofollow\" target=\"_NEW\">\nhttps://lensdump.com/i/pxM1q</a> \r\n <a href=\"\nhttps://lensdump.com/i/pxvwD\" rel=\"nofollow\" target=\"_NEW\">\nhttps://lensdump.com/i/pxvwD</a> \r\n <a href=\"\nhttps://lensdump.com/i/pxnS0\" rel=\"nofollow\" target=\"_NEW\">\nhttps://lensdump.com/i/pxnS0</a>\r\n\r\n\r\nVideo\r\nID                                       : 1\r\nFormat                                   : AVC\r\nFormat/Info                              : Advanced Video Codec\r\nFormat settings, CABAC                   : Yes\r\nFormat settings, ReFrames                : 4 frames\r\nCodec ID                                 : avc1\r\nCodec ID/Info                            : Advanced Video Coding\r\nDuration                                 : 1h 56mn\r\nBit rate                                 : 1 994 Kbps\r\nMaximum bit rate                         : 7 229 Kbps\r\nWidth                                    : 1 920 pixels\r\nHeight                                   : 1 080 pixels\r\nDisplay aspect ratio                     : 16:9\r\nFrame rate mode                          : Constant\r\nFrame rate                               : 29.970 fps\r\nColor space                              : YUV\r\nChroma subsampling                       : 4:2:0\r\nBit depth                                : 8 bits\r\nScan type                                : Progressive\r\nBits/(Pixel*Frame)                       : 0.032\r\nStream size                              : 1.63 GiB (98%)\r\n\r\n\r\nAudio\r\nID                                       : 2\r\nFormat                                   : AAC\r\nFormat/Info                              : Advanced Audio Codec\r\nFormat profile                           : LC\r\nCodec ID                                 : 40\r\nDuration                                 : 1h 56mn\r\nBit rate mode                            : Variable\r\nBit rate                                 : 45.0 Kbps\r\nMaximum bit rate                         : 71.4 Kbps\r\nChannel(s)                               : 2 channels\r\nChannel positions                        : Front: L R\r\nSampling rate                            : 44.1 KHz\r\nCompression mode                         : Lossy\r\nStream size                              : 37.7 MiB (2%)\r\nLanguage                                 : English","last_updated":"2017-12-26T12:08:23.972Z","parsed":{"xt":"urn:btih:9f7e8e1fa3c9df8fa2f605ff8493682203d80390","dn":"Justice League 2017 1080p NEW PROPER Audio HC WEBRip x264 - EiE","tr":["udp://exodus.desync.com:6969","udp://open.demonii.com:1337","udp://tracker.coppersurfer.tk:6969","udp://tracker.leechers-paradise.org:6969","udp://zer0day.ch:1337"],"infoHash":"9f7e8e1fa3c9df8fa2f605ff8493682203d80390","infoHashBuffer":{"type":"Buffer","data":[159,126,142,31,163,201,223,143,162,246,5,255,132,147,104,34,3,216,3,144]},"name":"Justice League 2017 1080p NEW PROPER Audio HC WEBRip x264 - EiE","announce":["udp://exodus.desync.com:6969","udp://open.demonii.com:1337","udp://tracker.coppersurfer.tk:6969","udp://tracker.leechers-paradise.org:6969","udp://zer0day.ch:1337"],"urlList":[]}}